<?xml version="1.0" encoding="utf-8"?>
<!-- Generator: Adobe Illustrator 25.3.1, SVG Export Plug-In . SVG Version: 6.00 Build 0)  -->
<svg version="1.1" id="Livello_1" xmlns="http://www.w3.org/2000/svg" xmlns:xlink="http://www.w3.org/1999/xlink" x="0px" y="0px"
	 viewBox="0 0 1375 400.3" style="enable-background:new 0 0 1375 400.3;" xml:space="preserve">
<style type="text/css">
	.st0{fill:url(#SVGID_1_);}
	.st1{fill:#FFFFFF;}
</style>
<g>
	<linearGradient id="SVGID_1_" gradientUnits="userSpaceOnUse" x1="0" y1="185.045" x2="1375" y2="185.045">
		<stop  offset="0" style="stop-color:#FF5A00"/>
		<stop  offset="0.2894" style="stop-color:#FE6F0E"/>
		<stop  offset="0.8843" style="stop-color:#FCA533"/>
		<stop  offset="1" style="stop-color:#FBB03B"/>
	</linearGradient>
	<path class="st0" d="M1375,0v124.01c-185.04,39.91-285.65,134.87-457.58,145.81c-186.63,11.86-237.25-39.55-415.31-29
		C364.23,248.98,159.91,333.57,0,370.09V0H1375z"/>
</g>
<g>
	<path class="st1" d="M134.68,226.47c-3.35-14.3-0.42-27.4,8.7-38.95l-11.76-1.88c-2.57-0.41-5.21,0-7.53,1.19l-20.1,10.25
		c-1.67,0.85-2.53,2.76-2.05,4.57l12.09,46.12c0.46,1.76,2.06,2.99,3.88,2.98l20.31-0.09c1.24-0.01,2.46-0.26,3.6-0.75l4.16-1.79
		c-4.19-4.13-7.43-9.46-9.64-15.87C135.66,230.24,135.11,228.35,134.68,226.47z"/>
	<path class="st1" d="M242.88,243.27c-7.81-5.95-17.36-5.49-23.72,0.8c-1.23,1.22-1.84,3.97-3.64,3.42
		c-1.25-0.38-1.82-2.93-2.71-4.5c-1-1.75-1.94-3.46,0.4-4.97c2.23-1.43,3.86-0.69,5.1,1.36c0.65,1.07,1.33,1.23,2.35,0.57
		c1.15-0.74,0.77-1.6,0.25-2.47c-1.17-1.96-2.96-3.65-5.14-3.23c-3.05,0.6-4.02-0.86-4.84-3.2c-0.49-1.41-1.43-2.69-1.75-4.12
		c-0.43-1.97-3.45-3.91-2.27-5.03c1.65-1.58,4.67-0.43,7.07-0.08c2.72,0.4,5.28-0.1,7.68-1.04c2.7-1.06,3.5-2.71,3.08-5.48
		c-0.45-2.97-1.91-4.72-4.92-4.97c-3.3-0.28-6.61-0.51-9.92-0.65c-4.33-0.18-8.67-0.26-13.36-0.39c1.41,2.79,2.64,5.12,1.95,7.84
		c-0.78,0.03-0.9-0.39-1.04-0.8c-2.58-7.81-6.06-9.98-14.21-8.13c-9.67,2.19-19.42,4.09-29.16,7.01c6.07-1.59,7.64-7.3,10.93-12.01
		c0.48,1.89-0.27,2.89-0.5,3.98c-0.7,3.21-0.31,3.72,2.83,3.02c5.12-1.14,10.21-2.39,15.31-3.64c2.86-0.71,5.7-0.88,8.56-0.03
		c3.59,1.07,3.48,1.07,3.86-2.84c0.27-2.78-0.18-4.47-3.57-4.46c-2.04,0.01-4.09-0.85-5.74-2.43c0.89-0.71,1.6-0.13,2.3-0.1
		c7.62,0.29,14.94,2.45,22.41,3.65c2.37,0.38,4.52-0.12,6.82-1.12c3.98-1.74,2.05-7.83,0.03-8.58c2.18-0.19,2.56,1.35,3.21,2.52
		c0.71,1.28,1.96,1.82,3.01,1.14c2.73-1.76,0.53-6.64-0.31-8.45c-2.48-5.37-5.28-5.74-9.3-2.15c-4.91,4.4-11.91,3.05-15.99-3.21
		c1.51,1.18,2.44,1.98,3.45,2.68c3.7,2.58,7.48,2.45,10.89-0.48c2.02-1.74,3.76-3.77,6.9-3.32c1.28,0.18,1.82-1.15,1.87-2.22
		c0.07-1.6,0-3.35-1.38-4.43c-1.04-0.81-1.67,0.54-2.45,0.95c-1.19,0.62-2.22,1.6-4.28,1.66c2.18-1.57,3.22-2.96,2.25-5.37
		c-3.08-7.67-11.35-13.56-19.63-13.96c-2.6-0.13-5.12,0.59-7.89,0.55c1.32-1.91,3.5-1.42,4.93-2.47c-0.13-0.27-0.16-0.53-0.31-0.62
		c-0.82-0.51-1.65-0.99-2.5-1.45c-13.01-6.96-27.08-10.53-41.52-12.82c-10.79-1.71-21.52-1.78-32.03,1.82
		c-4.4,1.51-8.61,3.33-11.69,6.98c-2.25,2.66-2.35,6.47-0.05,8.05c2.58,1.77,5.54,2.86,8.77,2.12c7.98-1.83,16.06-2.55,24.22-2.33
		c4.99,0.13,10.01,0.19,14.89,1.57c-7.71,0.02-15.37,0.24-23.01,1.1c-12.28,1.37-23.92,4.7-34.46,11.32
		c-4.06,2.55-7.44,5.82-9.34,10.32c-1.46,3.46-0.34,5.83,3.19,7.06c3.64,1.27,7.37,1.04,11.1,0.48c13.06-1.99,25.52-6.44,38.3-9.54
		c3.47-0.84,6.94-1.69,10.41-2.53c-17.76-2.72-35.06-1.01-52.04,4.38c11.79-9.57,61.43-13.35,71.91-5.76
		c-0.41,0.76-1.21,0.82-1.91,1.02c-34.82,9.82-38.54,53.58-17.37,73.36c6.04,5.64,13.15,8.63,21.3,9.46c1.99,0.2,2.9-0.31,3.13-2.43
		c0.31-2.86,0.91-5.7,1.52-8.52c0.9-4.2,1.3-5.03,2.92-6.89c-0.1,0.74-0.17,1.25-0.24,1.76c-1.58,10.8-3.16,21.6-2.27,32.56
		c0.44,5.46,0.99,10.93,4.84,15.31c2.76,3.13,5.72,3.07,8.38-0.15c0.54-0.66,0.98-1.4,1.43-2.13c5.19-8.28,11.43-15.5,20.36-19.95
		c2.46-1.22,3.35-2.98,2.73-5.75c-1.13-5.08-4.9-8.1-10.12-7.93c-2.83,0.09-5.54,0.69-8.02,2.02c-1.94,1.04-2.23,0.35-1.93-1.46
		c0.79-4.74,1.46-9.51,2.33-14.24c0.66-3.54,0.59-7.01-0.28-10.49c-1.31-5.25-5.39-8.25-10.75-8.35c-2.41-0.04-4.53,0.95-7.7,1.47
		c3.69-3,7.1-3.78,10.77-3.04c6.75,1.35,9.18,6.61,10.57,12.57c4.52-1.96,2.95-5.32,2.52-8.48c-0.07-0.56-1.91-0.84-0.35-1.57
		c1.07-0.5,1.79,0.05,2.33,1.04c1.57,2.92,1.28,6.14-0.99,8.69c-2.28,2.56-4.66,5.04-3.86,9.31c2.03-2.34,3.86-4.51,5.77-6.61
		c0.6-0.66,1.04-2.03,2.09-1.65c1.4,0.51,0.98,1.99,0.82,3.11c-0.62,4.45-1.33,8.88-1.95,13.33c-0.13,0.96-0.74,2.16,1.03,2.46
		c1.71,0.29,1.91-0.66,2.11-1.97c0.33-2.13,0.32-4.35,1.22-6.44c1.38,0.59,1.56,1.76,2.04,2.66c4.99,9.31,8.72,19.28,14.86,27.99
		c0.81,1.15,1.4,2.72,3.13,1.99c1.65-0.7,1.16-2.36,0.93-3.69c-0.2-1.17-0.7-2.4-1.97-2.73c-1.66-0.44-2.48-1.67-3.17-2.98
		c-1.93-3.7-3.72-7.46-5.6-11.19c-0.63-1.25-0.6-2.36,0.06-3.64c3.33-6.44,10.13-8.74,16.61-5.48c4.14,2.08,7.32,5.27,9.6,9.23
		c6.24,10.84,8.67,22.13,2.89,33.94c-3.3,6.73-10.22,8.72-16.86,5.27c-2.11-1.1-3.96-2.54-5.59-4.27c-4.03-4.31-6.6-9.41-8.2-15.06
		c-1.29-4.56-1.51-9.24-1.92-14.06c0.33,2.73-0.49,5.01-2.65,6.76c-0.81,0.66-0.79,1.42-0.65,2.3c1.71,10.51,5.9,19.67,14.62,26.23
		c10.15,7.64,22.02,4.7,27.64-6.69c3.36-6.81,3.71-14.02,2.56-21.32C255.66,258.63,251.34,249.72,242.88,243.27z M148.64,229.45
		c-3.21-0.41-5.36-2.46-6.77-5.33c-2.14-4.35-2.36-8.94-1.21-13.48c2.58-10.17,9.74-16.68,18.46-21.76
		c-2.79,2.78-5.71,5.45-8.35,8.37c-5.53,6.12-8.95,13.13-7.62,21.62c1.14,7.29,5.87,10.01,13.05,8.17
		c5.95-1.52,11.33-4.29,16.83-6.81C165.87,225.86,158.39,230.69,148.64,229.45z"/>
	<path class="st1" d="M203.7,275.34c-6.42,4.4-10.29,10.79-14.33,17.03c-0.25,0.38-0.02,1.34,0.31,1.79
		c3.36,4.59,1.31,9.1-0.53,13.32c-3.3,7.56-10.37,9.35-17.17,4.71c-10.4-7.09-15.14-25.45-9.44-36.68c1.67-3.29,4.08-5.96,7.89-6.41
		c3.23-0.38,2.49-2.41,2.09-4.16c-0.54-2.39-2.3-1.27-3.6-0.82c-5.85,2.03-9.15,6.47-11,12.11c-2.5,7.62-1.81,15.23,0.67,22.68
		c2.21,6.63,5.88,12.35,11.77,16.38c9.02,6.17,19.07,3.51,23.95-6.28c1.2-2.42,1.99-4.96,2.36-7.63c0.18-1.26,0.68-1.99,2-2.52
		c4.51-1.82,6.83-5.66,5.65-10.53C203.26,284.02,202.8,279.84,203.7,275.34z"/>
	<path class="st1" d="M230,278.23c-2.1,1.17-4.12-0.1-6.14-3.48c-1.61-2.7-3.69-5.09-5.32-8.48c-0.15,5.35,1.08,10.24,3.29,15.15
		c1.16,2.58,2.47,3.92,5.52,2.61c1.73-0.74,3.75-0.82,5.64-1.16c1.35-0.24,2.36-0.94,3.04-2.13c2.41-4.2-0.93-11.24-5.95-12.26
		c0.49,0.8,0.99,1.48,1.33,2.24C232.77,273.68,232.12,277.05,230,278.23z"/>
	<path class="st1" d="M210.76,273.57c-0.25-1.01,0.22-2.85-1.39-2.77c-1.57,0.08-2.96,1.1-3.21,3.01c-0.34,2.64-0.89,5.25-1.1,7.9
		c-0.48,5.98,2.67,9.11,8.01,8.15c3.46-0.62,3.67-1.06,2.03-4.32C213.17,281.73,211.8,277.72,210.76,273.57z"/>
	<path class="st1" d="M238.68,271.2c1.31-0.74,1.26-2.1,1.07-3.34c-0.3-1.4-0.86-2.73-2.18-3.05c-2.41-0.59-3.42-2.46-4.44-4.3
		c-1.81-3.27-3.42-6.65-5.22-9.93c-0.53-0.97-0.8-2.83-2.66-1.75c-1.67,0.96-0.6,2.12-0.09,3.29c2.81,6.5,6.75,12.31,10.84,18.03
		C236.66,271.06,237.53,271.86,238.68,271.2z"/>
	<path class="st1" d="M173.27,278.52c-1.73,6.03-3.36,11.53-4.87,17.06c-0.42,1.52,0.53,2.38,1.96,2.01
		c3.85-0.99,7.65-2.18,11.6-3.32c-2.14-3.22-4.56-1.85-6.88-1.29c-0.7,0.17-1.4,0.88-2.11,0.34c-0.9-0.7-0.22-1.62,0.02-2.35
		C174.24,287.08,175.7,283.23,173.27,278.52z"/>
	<path class="st1" d="M195.69,250.93c-0.05,0.68-0.51,1.51,0.32,2.06c0.85,0.56,6.2-1.34,6.35-2.33c0.64-4.06,1.19-8.13,1.82-12.49
		C199.38,241.32,196.03,246.44,195.69,250.93z"/>
	<path class="st1" d="M212.9,226.85c-0.51,0-1.36,0.18-1.12,0.77c0.64,1.59,0.59,4.15,2.65,4.31c4.21,0.34,7.22,2.14,9.34,6.66
		C225.29,231.79,219.37,226.88,212.9,226.85z"/>
</g>
</svg>
