<?xml version="1.0" encoding="utf-8"?>
<!-- Generator: Adobe Illustrator 25.3.1, SVG Export Plug-In . SVG Version: 6.00 Build 0)  -->
<svg version="1.1" id="Livello_1" xmlns="http://www.w3.org/2000/svg" xmlns:xlink="http://www.w3.org/1999/xlink" x="0px" y="0px"
	 viewBox="0 0 1447 123.75" style="enable-background:new 0 0 1447 123.75;" xml:space="preserve">
<style type="text/css">
	.st0{fill:url(#SVGID_1_);}
</style>
<linearGradient id="SVGID_1_" gradientUnits="userSpaceOnUse" x1="0" y1="61.876" x2="1447" y2="61.876">
	<stop  offset="0" style="stop-color:#FF5A00"/>
	<stop  offset="0.2894" style="stop-color:#FE6F0E"/>
	<stop  offset="0.8843" style="stop-color:#FCA533"/>
	<stop  offset="1" style="stop-color:#FBB03B"/>
</linearGradient>
<path class="st0" d="M1447,123.75c-34.46,0-34.46-14-68.91-14c-34.46,0-34.46,14-68.91,14c-34.45,0-34.45-14-68.91-14
	c-34.45,0-34.45,14-68.91,14c-34.45,0-34.45-14-68.9-14c-34.45,0-34.45,14-68.91,14c-34.45,0-34.45-14-68.91-14
	c-34.45,0-34.45,14-68.9,14c-34.45,0-34.45-14-68.91-14c-34.45,0-34.45,14-68.91,14c-34.45,0-34.45-14-68.9-14
	c-34.45,0-34.45,14-68.9,14c-34.45,0-34.45-14-68.9-14c-34.45,0-34.45,14-68.9,14c-34.45,0-34.45-14-68.9-14
	c-34.45,0-34.45,14-68.91,14c-34.45,0-34.45-14-68.9-14c-34.45,0-34.45,14-68.9,14c-34.45,0-34.45-14-68.9-14
	c-34.45,0-34.45,14-68.9,14c-34.45,0-34.45-14-68.9-14V0h1447V123.75z"/>
</svg>
