<?xml version="1.0" encoding="utf-8"?>
<!-- Generator: Adobe Illustrator 25.3.1, SVG Export Plug-In . SVG Version: 6.00 Build 0)  -->
<svg version="1.1" id="Livello_1" xmlns="http://www.w3.org/2000/svg" xmlns:xlink="http://www.w3.org/1999/xlink" x="0px" y="0px"
	 viewBox="0 0 37.67 30.39" style="enable-background:new 0 0 37.67 30.39;" xml:space="preserve">
<style type="text/css">
	.st0{fill:#FFFFFF;}
</style>
<path class="st0" d="M29.65,9.97H7.08c-0.8,0-1.46-0.65-1.46-1.46v0c0-0.8,0.65-1.46,1.46-1.46h22.57c0.8,0,1.46,0.65,1.46,1.46v0
	C31.1,9.32,30.45,9.97,29.65,9.97z"/>
<path class="st0" d="M29.65,16.49H7.08c-0.8,0-1.46-0.65-1.46-1.46v0c0-0.8,0.65-1.46,1.46-1.46h22.57c0.8,0,1.46,0.65,1.46,1.46v0
	C31.1,15.84,30.45,16.49,29.65,16.49z"/>
<path class="st0" d="M29.65,23.01H7.08c-0.8,0-1.46-0.65-1.46-1.46v0c0-0.8,0.65-1.46,1.46-1.46h22.57c0.8,0,1.46,0.65,1.46,1.46v0
	C31.1,22.36,30.45,23.01,29.65,23.01z"/>
</svg>
