<?xml version="1.0" encoding="utf-8"?>
<!-- Generator: Adobe Illustrator 25.3.1, SVG Export Plug-In . SVG Version: 6.00 Build 0)  -->
<svg version="1.1" id="Livello_1" xmlns="http://www.w3.org/2000/svg" xmlns:xlink="http://www.w3.org/1999/xlink" x="0px" y="0px"
	 viewBox="0 0 78.55 101.49" style="enable-background:new 0 0 78.55 101.49;" xml:space="preserve">
<style type="text/css">
	.st0{fill:#FFFFFF;}
</style>
<g>
	<path class="st0" d="M19.86,47.54c0.47-7.75,3.93-13.94,10.3-18.41l-5.67-2.73c-1.24-0.6-2.64-0.79-3.99-0.54L8.77,28
		c-0.98,0.18-1.7,1.01-1.73,2.01L6.18,55.2c-0.03,0.96,0.59,1.83,1.52,2.1L18,60.33c0.63,0.18,1.29,0.24,1.94,0.17l2.38-0.28
		c-1.5-2.73-2.33-5.92-2.48-9.5C19.79,49.59,19.8,48.56,19.86,47.54z"/>
	<path class="st0" d="M72.13,72.42c-3.06-4.2-7.96-5.41-12.14-3.19c-0.81,0.43-1.54,1.73-2.36,1.18c-0.57-0.38-0.48-1.76-0.69-2.69
		c-0.24-1.04-0.46-2.05,0.95-2.46c1.34-0.39,2.06,0.24,2.38,1.46c0.17,0.64,0.49,0.83,1.11,0.65c0.69-0.2,0.63-0.69,0.5-1.21
		c-0.3-1.17-0.95-2.3-2.12-2.41c-1.64-0.16-1.91-1.04-1.97-2.35c-0.04-0.79-0.32-1.58-0.26-2.35c0.08-1.07-1.16-2.5-0.39-2.89
		c1.08-0.55,2.43,0.49,3.6,1.03c1.32,0.61,2.69,0.75,4.05,0.64c1.53-0.13,2.18-0.85,2.39-2.31c0.22-1.57-0.25-2.68-1.74-3.26
		c-1.63-0.64-3.27-1.26-4.93-1.83c-2.17-0.75-4.35-1.44-6.71-2.22c0.29,1.62,0.56,2.99-0.2,4.27c-0.4-0.1-0.4-0.34-0.4-0.56
		c-0.12-4.35-1.56-5.97-5.96-6.27c-5.23-0.36-10.46-0.87-15.83-0.86c3.31,0.11,4.98-2.54,7.36-4.43c-0.04,1.03-0.57,1.42-0.86,1.94
		c-0.84,1.52-0.72,1.84,0.98,1.96c2.77,0.2,5.54,0.34,8.3,0.47c1.56,0.08,3.02,0.42,4.34,1.28c1.65,1.09,1.6,1.07,2.38-0.86
		c0.56-1.37,0.59-2.29-1.13-2.8c-1.03-0.31-1.94-1.05-2.54-2.1c0.56-0.22,0.83,0.18,1.18,0.3c3.82,1.3,7.2,3.5,10.8,5.24
		c1.14,0.55,2.31,0.62,3.62,0.46c2.28-0.28,2.22-3.65,1.32-4.34c1.13,0.23,1.09,1.07,1.24,1.76c0.16,0.76,0.72,1.22,1.35,1.03
		c1.65-0.48,1.27-3.28,1.12-4.33c-0.45-3.09-1.81-3.71-4.39-2.5c-3.15,1.48-6.49-0.26-7.61-4.05c0.59,0.83,0.94,1.37,1.34,1.88
		c1.48,1.87,3.42,2.38,5.59,1.41c1.29-0.57,2.48-1.34,4-0.64c0.62,0.29,1.1-0.31,1.28-0.84c0.28-0.8,0.51-1.69-0.03-2.45
		c-0.4-0.57-0.93,0.02-1.38,0.11c-0.7,0.13-1.37,0.48-2.42,0.19c1.34-0.47,2.08-1.01,1.95-2.38c-0.4-4.35-3.7-8.59-7.83-10.04
		c-1.3-0.46-2.68-0.48-4.08-0.91c0.96-0.77,1.99-0.19,2.87-0.5c-0.02-0.15,0-0.29-0.06-0.36c-0.34-0.38-0.68-0.75-1.05-1.11
		c-5.54-5.5-12.12-9.43-19.09-12.78c-5.21-2.5-10.63-4.16-16.5-3.92c-2.46,0.1-4.87,0.38-6.98,1.77c-1.54,1.01-2.17,2.92-1.24,4.07
		c1.04,1.29,2.37,2.29,4.12,2.4c4.32,0.28,8.52,1.14,12.62,2.48c2.51,0.82,5.04,1.61,7.3,3.05c-3.91-1.16-7.82-2.2-11.82-2.93
		c-6.43-1.16-12.83-1.24-19.17,0.52C5.85,13.51,3.65,14.66,2,16.65c-1.26,1.53-1.05,2.9,0.55,4.06c1.65,1.19,3.58,1.64,5.55,1.92
		c6.92,0.97,13.9,0.6,20.85,0.96c1.89,0.1,3.77,0.2,5.66,0.3c-8.58-4.07-17.6-5.82-27.02-5.66c7.42-3.06,33.14,2.54,37.3,7.97
		c-0.32,0.32-0.74,0.23-1.12,0.23c-19.12-0.3-27.63,21.3-19.9,34.53c2.21,3.77,5.36,6.36,9.36,8.02c0.98,0.4,1.51,0.28,1.95-0.76
		c0.59-1.4,1.33-2.75,2.06-4.09c1.09-1.99,1.42-2.35,2.52-3.05c-0.16,0.36-0.27,0.61-0.39,0.86c-2.44,5.23-4.87,10.46-6.08,16.15
		c-0.6,2.83-1.15,5.68,0.14,8.49c0.92,2,2.43,2.42,4.27,1.2c0.37-0.25,0.71-0.56,1.05-0.86c3.88-3.41,8.13-6.12,13.33-7.02
		c1.43-0.25,2.15-1,2.25-2.5c0.19-2.74-1.25-4.84-3.92-5.55c-1.45-0.38-2.91-0.49-4.37-0.19c-1.14,0.23-1.18-0.16-0.76-1.03
		c1.12-2.28,2.18-4.6,3.34-6.86c0.87-1.7,1.36-3.46,1.45-5.36c0.13-2.86-1.48-5-4.18-5.86c-1.21-0.39-2.44-0.2-4.12-0.42
		c2.32-0.96,4.17-0.84,5.92,0.09c3.22,1.71,3.65,4.74,3.45,7.97c2.58-0.31,2.3-2.25,2.56-3.91c0.05-0.29-0.84-0.71,0.06-0.85
		c0.62-0.09,0.9,0.3,1.02,0.88c0.35,1.72-0.28,3.31-1.82,4.25c-1.54,0.95-3.12,1.85-3.36,4.13c1.38-0.88,2.64-1.7,3.92-2.47
		c0.41-0.24,0.83-0.87,1.31-0.52c0.63,0.47,0.19,1.15-0.06,1.7c-0.99,2.16-2.02,4.3-3.01,6.46c-0.21,0.47-0.7,0.98,0.15,1.4
		c0.82,0.41,1.07-0.04,1.37-0.68c0.49-1.03,0.82-2.16,1.59-3.08c0.61,0.51,0.52,1.13,0.63,1.66c1.12,5.47,1.5,11.09,3.29,16.43
		c0.24,0.7,0.3,1.59,1.29,1.48c0.94-0.11,0.94-1.02,1.03-1.73c0.08-0.62,0.01-1.32-0.58-1.68c-0.77-0.47-1.01-1.22-1.15-1.99
		c-0.42-2.16-0.76-4.34-1.14-6.51c-0.13-0.73,0.05-1.29,0.58-1.83c2.66-2.76,6.46-2.89,9.24-0.26c1.78,1.68,2.91,3.78,3.46,6.13
		c1.52,6.43,1.04,12.52-3.68,17.63c-2.69,2.91-6.49,2.87-9.34,0.12c-0.9-0.88-1.62-1.89-2.18-3.01c-1.39-2.8-1.92-5.76-1.87-8.87
		c0.04-2.51,0.64-4.91,1.15-7.41c-0.24,1.43-1.01,2.47-2.36,3.02c-0.51,0.21-0.62,0.6-0.68,1.07c-0.73,5.58,0.01,10.86,3.43,15.5
		c3.99,5.4,10.44,5.72,15.02,0.8c2.73-2.94,4-6.54,4.52-10.41C76.28,82.14,75.44,76.97,72.13,72.42z M26.49,51.16
		c-1.56-0.69-2.34-2.06-2.62-3.73c-0.43-2.53,0.16-4.89,1.43-7.01c2.84-4.76,7.46-6.97,12.64-8.23c-1.84,0.99-3.72,1.9-5.5,2.98
		c-3.73,2.26-6.52,5.29-7.14,9.8c-0.53,3.86,1.46,5.96,5.37,6.11c3.24,0.13,6.39-0.46,9.55-0.9C35.76,51.95,31.24,53.27,26.49,51.16
		z"/>
	<path class="st0" d="M47.43,82.74c-3.92,1.26-6.85,3.91-9.84,6.46c-0.18,0.16-0.21,0.67-0.11,0.95c1.01,2.84-0.71,4.81-2.29,6.67
		c-2.82,3.33-6.67,3.17-9.41-0.21c-4.19-5.17-3.82-15.18,0.77-20.01c1.34-1.41,2.97-2.4,4.97-2.05c1.69,0.3,1.63-0.84,1.69-1.79
		c0.09-1.29-0.97-0.99-1.7-0.96c-3.27,0.14-5.61,1.89-7.41,4.47c-2.42,3.48-3.22,7.44-3.09,11.59c0.12,3.69,1.11,7.15,3.48,10.08
		c3.64,4.49,9.13,4.67,13.08,0.44c0.97-1.04,1.76-2.21,2.35-3.51c0.28-0.61,0.65-0.91,1.39-0.97c2.56-0.24,4.31-1.83,4.45-4.48
		C45.89,87.07,46.3,84.88,47.43,82.74z"/>
	<path class="st0" d="M60.32,88.18c-1.24,0.27-2.07-0.67-2.59-2.69c-0.41-1.61-1.1-3.14-1.41-5.1c-0.89,2.69-1.01,5.35-0.63,8.17
		c0.2,1.48,0.66,2.36,2.4,2.16c0.99-0.11,2.02,0.15,3.03,0.27c0.72,0.08,1.34-0.12,1.86-0.62c1.86-1.76,1.23-5.83-1.16-7.11
		c0.12,0.48,0.28,0.9,0.34,1.33C62.41,86.3,61.57,87.91,60.32,88.18z"/>
	<path class="st0" d="M51.27,82.91c0.02-0.55,0.54-1.41-0.29-1.61c-0.81-0.2-1.67,0.11-2.08,1.04c-0.57,1.28-1.25,2.53-1.75,3.83
		c-1.15,2.95-0.03,5.02,2.82,5.34c1.85,0.21,2.02,0.02,1.68-1.88C51.26,87.41,51.17,85.17,51.27,82.91z"/>
	<path class="st0" d="M65.78,85.94c0.77-0.18,0.96-0.87,1.05-1.53c0.06-0.75-0.02-1.51-0.64-1.88c-1.13-0.66-1.36-1.76-1.6-2.85
		c-0.42-1.93-0.73-3.89-1.14-5.82c-0.12-0.57,0.03-1.56-1.08-1.29c-0.99,0.24-0.62,0.98-0.55,1.65c0.44,3.72,1.56,7.26,2.76,10.77
		C64.77,85.56,65.09,86.1,65.78,85.94z"/>
	<path class="st0" d="M31.53,79.74c-1.79,2.79-3.45,5.33-5.05,7.9c-0.44,0.71-0.09,1.28,0.69,1.31c2.1,0.08,4.21,0.05,6.38,0.07
		c-0.6-1.96-2.03-1.63-3.29-1.69c-0.38-0.02-0.84,0.24-1.12-0.15c-0.35-0.49,0.13-0.85,0.36-1.19
		C30.73,84.23,32.05,82.5,31.53,79.74z"/>
	<path class="st0" d="M47.07,69.16c-0.13,0.34-0.48,0.69-0.15,1.09c0.34,0.41,3.34,0.26,3.57-0.22c0.94-1.96,1.84-3.94,2.81-6.05
		C50.39,64.85,47.92,66.94,47.07,69.16z"/>
	<path class="st0" d="M59.43,59.57c-0.26-0.08-0.72-0.12-0.69,0.22c0.08,0.9-0.33,2.19,0.69,2.58c2.08,0.81,3.33,2.18,3.72,4.79
		C64.96,63.95,62.7,60.56,59.43,59.57z"/>
</g>
</svg>
